<svg width="108" height="108" viewBox="0 0 108 108" version="1.1" xmlns="http://www.w3.org/2000/svg" xmlns:xlink="http://www.w3.org/1999/xlink">
<title>background</title>
<desc>Created using Figma</desc>
<g id="Canvas">
<g id="background">
<g id="base">
<use xlink:href="#path0_fill" fill="#2196F3"/>
</g>
<g id="blueprint">
<g id="Path 2">
<use xlink:href="#path1_stroke" transform="translate(98 0)" fill="#FFFFFF" fill-opacity="0.6"/>
</g>
<g id="Path 2">
<use xlink:href="#path1_stroke" transform="translate(88 0)" fill="#FFFFFF" fill-opacity="0.3"/>
</g>
<g id="Path 2">
<use xlink:href="#path1_stroke" transform="translate(78 0)" fill="#FFFFFF" fill-opacity="0.6"/>
</g>
<g id="Path 2">
<use xlink:href="#path1_stroke" transform="translate(68 0)" fill="#FFFFFF" fill-opacity="0.6"/>
</g>
<g id="Path 2">
<use xlink:href="#path1_stroke" transform="translate(58 0)" fill="#FFFFFF" fill-opacity="0.6"/>
</g>
<g id="Path 2">
<use xlink:href="#path1_stroke" transform="translate(48 0)" fill="#FFFFFF" fill-opacity="0.6"/>
</g>
<g id="Path 2">
<use xlink:href="#path1_stroke" transform="translate(38 0)" fill="#FFFFFF" fill-opacity="0.6"/>
</g>
<g id="Path 2">
<use xlink:href="#path1_stroke" transform="translate(28 0)" fill="#FFFFFF" fill-opacity="0.6"/>
</g>
<g id="Path 2">
<use xlink:href="#path1_stroke" transform="translate(18 0)" fill="#FFFFFF" fill-opacity="0.3"/>
</g>
<g id="Path 2">
<use xlink:href="#path1_stroke" transform="translate(8 0)" fill="#FFFFFF" fill-opacity="0.6"/>
</g>
<g id="Path 2">
<use xlink:href="#path1_stroke" transform="matrix(6.12323e-17 -1 1 6.12323e-17 0 100)" fill="#FFFFFF" fill-opacity="0.6"/>
</g>
<g id="Path 2">
<use xlink:href="#path1_stroke" transform="matrix(6.12323e-17 -1 1 6.12323e-17 0 90)" fill="#FFFFFF" fill-opacity="0.3"/>
</g>
<g id="Path 2">
<use xlink:href="#path1_stroke" transform="matrix(6.12323e-17 -1 1 6.12323e-17 0 80)" fill="#FFFFFF" fill-opacity="0.6"/>
</g>
<g id="Path 2">
<use xlink:href="#path1_stroke" transform="matrix(6.12323e-17 -1 1 6.12323e-17 0 70)" fill="#FFFFFF" fill-opacity="0.6"/>
</g>
<g id="Path 2">
<use xlink:href="#path1_stroke" transform="matrix(6.12323e-17 -1 1 6.12323e-17 0 60)" fill="#FFFFFF" fill-opacity="0.6"/>
</g>
<g id="Path 2">
<use xlink:href="#path1_stroke" transform="matrix(6.12323e-17 -1 1 6.12323e-17 0 50)" fill="#FFFFFF" fill-opacity="0.6"/>
</g>
<g id="Path 2">
<use xlink:href="#path1_stroke" transform="matrix(6.12323e-17 -1 1 6.12323e-17 7.10543e-15 40)" fill="#FFFFFF" fill-opacity="0.6"/>
</g>
<g id="Path 2">
<use xlink:href="#path1_stroke" transform="matrix(6.12323e-17 -1 1 6.12323e-17 7.10543e-15 30)" fill="#FFFFFF" fill-opacity="0.6"/>
</g>
<g id="Path 2">
<use xlink:href="#path1_stroke" transform="matrix(6.12323e-17 -1 1 6.12323e-17 7.10543e-15 20)" fill="#FFFFFF" fill-opacity="0.3"/>
</g>
<g id="Path 2">
<use xlink:href="#path1_stroke" transform="matrix(6.12323e-17 -1 1 6.12323e-17 7.10543e-15 10)" fill="#FFFFFF" fill-opacity="0.6"/>
</g>
</g>
</g>
</g>
<defs>
<path id="path0_fill" fill-rule="evenodd" d="M 0 0L 108 0L 108 108L 0 108L 0 0Z"/>
<path id="path1_stroke" d="M 0.8 0L 0.8 108L 1.2 108L 1.2 0L 0.8 0Z"/>
</defs>
</svg>
