<svg width="108" height="108" viewBox="0 0 108 108" version="1.1" xmlns="http://www.w3.org/2000/svg" xmlns:xlink="http://www.w3.org/1999/xlink">
<title>ic_launcher_foreground</title>
<desc>Created using Figma</desc>
<g id="Canvas">
<g id="foreground">
<g id="long-shadow">
<use xlink:href="#path0_fill" transform="translate(32 49.1933)" fill="url(#paint0_radial)"/>
</g>
<g id="android-head">
<use xlink:href="#path1_fill" transform="translate(32 38)" fill="#FFFFFF"/>
</g>
<g id="finish">
<use xlink:href="#path2_fill" fill="url(#paint2_radial)"/>
</g>
</g>
</g>
<defs>
<radialGradient id="paint0_radial" cx="0.5" cy="0.5" r="0.5" gradientUnits="userSpaceOnUse" gradientTransform="matrix(115.855 104.144 -134.592 89.6452 27.4414 -90.1596)">
<stop offset="0" stop-color="#000000" stop-opacity="0.15"/>
<stop offset="0.141511" stop-color="#000000" stop-opacity="0.15"/>
<stop offset="0.643402" stop-color="#000000" stop-opacity="0.02"/>
<stop offset="1" stop-color="#000000" stop-opacity="0.01"/>
</radialGradient>
<radialGradient id="paint2_radial" cx="0.5" cy="0.5" r="0.5" gradientUnits="userSpaceOnUse" gradientTransform="matrix(100.556 100.682 -100.682 100.556 29.8039 -70.9346)">
<stop offset="0" stop-color="#FFFFFF" stop-opacity="0.1"/>
<stop offset="1" stop-color="#FFFFFF" stop-opacity="0.01"/>
</radialGradient>
<path id="path0_fill" fill-rule="evenodd" d="M 43.9655 58.8067L 76 58.8067L 76 38.1167L 38.5234 0C 38.5234 0 38.2511 7.58641 30.9409 10.2343C 25.1462 12.3333 0 14.8067 0 14.8067L 43.9655 58.8067Z"/>
<path id="path1_fill" fill-rule="evenodd" d="M 34.9433 8.02286L 39.71 3.19429C 40.4433 2.45143 40.4433 1.3 39.71 0.557144C 38.9767 -0.185715 37.84 -0.185715 37.1067 0.557144L 31.68 6.05429C 28.7833 4.56857 25.4833 3.71429 22 3.71429C 18.48 3.71429 15.18 4.56857 12.2467 6.05429L 6.78333 0.557144C 6.05 -0.185715 4.91333 -0.185715 4.18 0.557144C 3.44667 1.3 3.44667 2.45143 4.18 3.19429L 8.98333 8.06C 3.55667 12.1086 0 18.6086 0 26L 44 26C 44 18.6086 40.4433 12.0714 34.9433 8.02286ZM 30.9375 18.9156C 32.0766 18.9156 33 18.0061 33 16.8843C 33 15.7625 32.0766 14.8531 30.9375 14.8531C 29.7984 14.8531 28.875 15.7625 28.875 16.8843C 28.875 18.0061 29.7984 18.9156 30.9375 18.9156ZM 15.125 16.8843C 15.125 18.0061 14.2016 18.9156 13.0625 18.9156C 11.9234 18.9156 11 18.0061 11 16.8843C 11 15.7625 11.9234 14.8531 13.0625 14.8531C 14.2016 14.8531 15.125 15.7625 15.125 16.8843Z"/>
<path id="path2_fill" fill-rule="evenodd" d="M 0 0L 108 0L 108 108L 0 108L 0 0Z"/>
</defs>
</svg>
